<?xml version="1.0" encoding="UTF-8"?>
<!DOCTYPE svg PUBLIC "-//W3C//DTD SVG 1.1//EN" "http://www.w3.org/Graphics/SVG/1.1/DTD/svg11.dtd">
<svg xmlns="http://www.w3.org/2000/svg" version="1.1" width="1123px" height="439px" style="shape-rendering:geometricPrecision; text-rendering:geometricPrecision; image-rendering:optimizeQuality; fill-rule:evenodd; clip-rule:evenodd" xmlns:xlink="http://www.w3.org/1999/xlink">
    <g><path style="opacity:0.771" fill="#b9cedf" d="M 109.5,15.5 C 109.167,15.5 108.833,15.5 108.5,15.5C 97.8542,14.1678 86.8542,13.5011 75.5,13.5C 64.2594,13.5052 53.0927,13.8386 42,14.5C 41.3333,110.5 41.3333,206.5 42,302.5C 42.722,309.053 44.222,315.386 46.5,321.5C 46.5,322.167 46.5,322.833 46.5,323.5C 44.4887,321.333 43.3221,318.666 43,315.5C 41.5664,308.898 40.5664,302.232 40,295.5C 39.3333,201.5 39.3333,107.5 40,13.5C 63.0917,12.5059 86.2583,12.1726 109.5,12.5C 109.5,13.5 109.5,14.5 109.5,15.5 Z"/></g>
    <g><path style="opacity:1" fill="#0b558b" d="M 108.5,15.5 C 108.17,54.4059 108.504,93.2393 109.5,132C 116.069,130.686 122.735,129.353 129.5,128C 172.504,127.167 215.504,127.333 258.5,128.5C 246.96,149.747 235.294,170.914 223.5,192C 194.835,192.5 166.169,192.667 137.5,192.5C 122.33,195.503 112.83,204.503 109,219.5C 108.333,245.167 108.333,270.833 109,296.5C 110.19,301.213 112.19,305.547 115,309.5C 117.106,312.118 119.606,314.118 122.5,315.5C 125.475,318.661 129.142,320.828 133.5,322C 139.833,322.333 146.167,322.667 152.5,323C 141.794,342.913 130.96,362.747 120,382.5C 118.556,384.155 116.722,384.822 114.5,384.5C 82.2287,373.896 59.562,352.896 46.5,321.5C 44.222,315.386 42.722,309.053 42,302.5C 41.3333,206.5 41.3333,110.5 42,14.5C 53.0927,13.8386 64.2594,13.5052 75.5,13.5C 86.8542,13.5011 97.8542,14.1678 108.5,15.5 Z"/></g>
    <g><path style="opacity:0.991" fill="#717271" d="M 269.5,127.5 C 290.5,127.5 311.5,127.5 332.5,127.5C 332.5,159.833 332.5,192.167 332.5,224.5C 309.833,224.5 287.167,224.5 264.5,224.5C 264.059,205.396 254.392,195.062 235.5,193.5C 235.799,189.895 236.965,186.561 239,183.5C 249.433,164.966 259.6,146.3 269.5,127.5 Z"/></g>
    <g><path style="opacity:0.282" fill="#a4bfd5" d="M 108.5,15.5 C 108.833,15.5 109.167,15.5 109.5,15.5C 109.224,53.5534 109.557,91.72 110.5,130C 124.783,127.256 139.283,125.756 154,125.5C 189.155,126.463 224.322,126.797 259.5,126.5C 249.303,149.391 237.637,171.558 224.5,193C 214.929,194.142 205.262,194.642 195.5,194.5C 175.156,193.62 154.823,193.62 134.5,194.5C 135.5,193.833 136.5,193.167 137.5,192.5C 166.169,192.667 194.835,192.5 223.5,192C 235.294,170.914 246.96,149.747 258.5,128.5C 215.504,127.333 172.504,127.167 129.5,128C 122.735,129.353 116.069,130.686 109.5,132C 108.504,93.2393 108.17,54.4059 108.5,15.5 Z"/></g>
    <g><path style="opacity:0.923" fill="#0b548b" d="M 1040.5,174.5 C 1049.17,174.5 1057.83,174.5 1066.5,174.5C 1066.5,180.167 1066.5,185.833 1066.5,191.5C 1057.83,191.5 1049.17,191.5 1040.5,191.5C 1040.5,185.833 1040.5,180.167 1040.5,174.5 Z"/></g>
    <g><path style="opacity:0.971" fill="#717271" d="M 410.5,188.5 C 412.453,194.074 413.12,200.074 412.5,206.5C 424.5,206.5 436.5,206.5 448.5,206.5C 448.5,210.5 448.5,214.5 448.5,218.5C 436.5,218.5 424.5,218.5 412.5,218.5C 412.333,235.837 412.5,253.17 413,270.5C 414.908,276.74 419.075,280.573 425.5,282C 433.125,283.59 440.792,283.757 448.5,282.5C 448.5,286.5 448.5,290.5 448.5,294.5C 435.135,295.954 421.802,295.787 408.5,294C 397.91,291.739 390.743,285.572 387,275.5C 386.5,256.503 386.333,237.503 386.5,218.5C 380.5,218.5 374.5,218.5 368.5,218.5C 368.5,214.5 368.5,210.5 368.5,206.5C 374.5,206.5 380.5,206.5 386.5,206.5C 386.5,201.167 386.5,195.833 386.5,190.5C 394.67,190.101 402.67,189.435 410.5,188.5 Z"/></g>
    <g><path style="opacity:0.971" fill="#0b548b" d="M 967.5,188.5 C 969.453,194.074 970.12,200.074 969.5,206.5C 981.5,206.5 993.5,206.5 1005.5,206.5C 1005.5,210.5 1005.5,214.5 1005.5,218.5C 993.5,218.5 981.5,218.5 969.5,218.5C 969.333,235.503 969.5,252.503 970,269.5C 971.464,276.298 975.631,280.464 982.5,282C 990.125,283.59 997.792,283.757 1005.5,282.5C 1005.5,286.5 1005.5,290.5 1005.5,294.5C 992.47,295.978 979.47,295.811 966.5,294C 955.361,292.189 947.861,286.022 944,275.5C 943.5,256.503 943.333,237.503 943.5,218.5C 937.5,218.5 931.5,218.5 925.5,218.5C 925.5,214.5 925.5,210.5 925.5,206.5C 931.5,206.5 937.5,206.5 943.5,206.5C 943.5,201.167 943.5,195.833 943.5,190.5C 951.67,190.101 959.67,189.435 967.5,188.5 Z"/></g>
    <g><path style="opacity:0.953" fill="#0b548b" d="M 523.5,204.5 C 537.932,203.927 552.265,204.761 566.5,207C 602.619,217.057 613.453,239.224 599,273.5C 589.046,284.895 576.546,291.729 561.5,294C 548.538,295.52 535.538,295.853 522.5,295C 505.613,293.639 491.447,286.806 480,274.5C 470.808,259.569 470.142,244.235 478,228.5C 485.691,218.065 495.858,211.232 508.5,208C 513.596,206.64 518.596,205.474 523.5,204.5 Z M 535.5,216.5 C 572.546,217.024 585.046,234.69 573,269.5C 563.72,279.323 552.22,283.99 538.5,283.5C 509.74,283.302 497.24,268.969 501,240.5C 503.189,231.643 508.356,225.143 516.5,221C 522.785,218.677 529.118,217.177 535.5,216.5 Z"/></g>
    <g><path style="opacity:0.957" fill="#0b548b" d="M 621.5,206.5 C 630.173,206.334 638.84,206.5 647.5,207C 661.044,228.584 674.21,250.418 687,272.5C 701.291,250.752 715.458,228.919 729.5,207C 737.521,206.168 745.521,206.335 753.5,207.5C 735.667,235.833 717.833,264.167 700,292.5C 690.893,293.817 681.727,293.817 672.5,292.5C 654.973,264.108 637.973,235.441 621.5,206.5 Z"/></g>
    <g><path style="opacity:0.973" fill="#0b548b" d="M 778.5,206.5 C 787.167,206.5 795.833,206.5 804.5,206.5C 804.044,228.553 804.544,250.553 806,272.5C 807.167,276.333 809.667,278.833 813.5,280C 833.611,283.241 850.944,277.741 865.5,263.5C 866.5,244.512 866.833,225.512 866.5,206.5C 875.167,206.5 883.833,206.5 892.5,206.5C 892.5,235.5 892.5,264.5 892.5,293.5C 883.833,293.5 875.167,293.5 866.5,293.5C 866.827,288.786 866.493,284.12 865.5,279.5C 845.165,295.2 822.498,299.7 797.5,293C 788.402,290.234 782.235,284.401 779,275.5C 778.5,252.502 778.333,229.502 778.5,206.5 Z"/></g>
    <g><path style="opacity:0.981" fill="#0b548b" d="M 1040.5,206.5 C 1049.17,206.5 1057.83,206.5 1066.5,206.5C 1066.5,235.5 1066.5,264.5 1066.5,293.5C 1057.83,293.5 1049.17,293.5 1040.5,293.5C 1040.5,264.5 1040.5,235.5 1040.5,206.5 Z"/></g>
    <g><path style="opacity:1" fill="#739bbb" d="M 137.5,192.5 C 136.5,193.167 135.5,193.833 134.5,194.5C 120.481,198.687 112.314,208.021 110,222.5C 109.333,245.833 109.333,269.167 110,292.5C 111.569,301.641 115.735,309.308 122.5,315.5C 119.606,314.118 117.106,312.118 115,309.5C 112.19,305.547 110.19,301.213 109,296.5C 108.333,270.833 108.333,245.167 109,219.5C 112.83,204.503 122.33,195.503 137.5,192.5 Z"/></g>
    <g><path style="opacity:1" fill="#727272" d="M 331.5,386.5 C 267.001,387.665 202.335,387.832 137.5,387C 135.1,386.814 132.766,386.314 130.5,385.5C 134.297,379.045 137.63,372.378 140.5,365.5C 143.258,362.322 145.258,358.655 146.5,354.5C 152.819,343.869 159.152,333.202 165.5,322.5C 190.169,322.667 214.836,322.5 239.5,322C 240.737,321.768 241.737,321.268 242.5,320.5C 250.845,318.166 257.179,313.166 261.5,305.5C 264.216,300.977 265.549,295.977 265.5,290.5C 287.5,290.5 309.5,290.5 331.5,290.5C 331.5,322.5 331.5,354.5 331.5,386.5 Z"/></g>
    <g><path style="opacity:1" fill="#979797" d="M 332.5,289.5 C 332.832,322.004 332.498,354.338 331.5,386.5C 331.5,354.5 331.5,322.5 331.5,290.5C 309.5,290.5 287.5,290.5 265.5,290.5C 265.549,295.977 264.216,300.977 261.5,305.5C 261.5,304.833 261.5,304.167 261.5,303.5C 262.901,299.302 263.735,294.968 264,290.5C 264.5,290 265,289.5 265.5,289C 287.906,288.178 310.239,288.345 332.5,289.5 Z"/></g>
    <g><path style="opacity:0.466" fill="#b0afaf" d="M 261.5,303.5 C 261.5,304.167 261.5,304.833 261.5,305.5C 257.179,313.166 250.845,318.166 242.5,320.5C 250.4,316.601 256.733,310.934 261.5,303.5 Z"/></g>
    <g><path style="opacity:0.476" fill="#b3b2b2" d="M 242.5,320.5 C 241.737,321.268 240.737,321.768 239.5,322C 214.836,322.5 190.169,322.667 165.5,322.5C 191.016,321.787 216.682,321.121 242.5,320.5 Z"/></g>
    <g><path style="opacity:0.375" fill="#adacac" d="M 165.5,322.5 C 159.152,333.202 152.819,343.869 146.5,354.5C 151.386,344.397 156.552,334.397 162,324.5C 162.816,323.177 163.983,322.511 165.5,322.5 Z"/></g>
    <g><path style="opacity:0.312" fill="#aeadad" d="M 146.5,354.5 C 145.258,358.655 143.258,362.322 140.5,365.5C 141.742,361.345 143.742,357.678 146.5,354.5 Z"/></g>
    <g><path style="opacity:0.531" fill="#7ea2c0" d="M 122.5,315.5 C 132.072,320.919 142.406,322.919 153.5,321.5C 143.311,342.877 132.311,363.877 120.5,384.5C 118.364,385.793 116.364,385.793 114.5,384.5C 116.722,384.822 118.556,384.155 120,382.5C 130.96,362.747 141.794,342.913 152.5,323C 146.167,322.667 139.833,322.333 133.5,322C 129.142,320.828 125.475,318.661 122.5,315.5 Z"/></g>
    <g><path style="opacity:0.5" fill="#789ebd" d="M 46.5,321.5 C 59.562,352.896 82.2287,373.896 114.5,384.5C 84.0959,376.274 61.9292,357.941 48,329.5C 47.187,327.564 46.687,325.564 46.5,323.5C 46.5,322.833 46.5,322.167 46.5,321.5 Z"/></g>
    <g><path style="opacity:0.787" fill="#b3b2b2" d="M 332.5,289.5 C 333.832,322.236 333.832,355.069 332.5,388C 266.167,388.667 199.833,388.667 133.5,388C 131.381,387.902 129.714,387.069 128.5,385.5C 132.164,378.532 136.164,371.865 140.5,365.5C 137.63,372.378 134.297,379.045 130.5,385.5C 132.766,386.314 135.1,386.814 137.5,387C 202.335,387.832 267.001,387.665 331.5,386.5C 332.498,354.338 332.832,322.004 332.5,289.5 Z"/></g>
    <g><path style="opacity:0.955" fill="#d1d3d3" d="M 146.5,403.5 C 199.521,403.093 252.521,403.926 305.5,406C 321.043,406.554 336.377,408.554 351.5,412C 353.592,412.953 353.925,414.286 352.5,416C 348.277,417.472 343.943,418.472 339.5,419C 253.236,425.819 166.903,426.819 80.5,422C 67.3898,421.172 54.3898,419.505 41.5,417C 36.334,414.588 36.6673,412.588 42.5,411C 53.7519,409.008 65.0853,407.675 76.5,407C 99.9805,405.562 123.314,404.395 146.5,403.5 Z"/></g>
</svg>
